<svg xmlns="http://www.w3.org/2000/svg" viewBox="0 0 786.03 1008.13"><defs><style>.cls-1,.cls-6{fill:none;}.cls-1,.cls-2,.cls-3,.cls-4,.cls-5,.cls-6{stroke:#1d0d09;stroke-miterlimit:10;}.cls-1,.cls-2,.cls-6{stroke-width:29.01px;}.cls-2{fill:#1d0d09;}.cls-3,.cls-4,.cls-5{fill:#fdfdfe;}.cls-3{stroke-width:27.17px;}.cls-4{stroke-width:24.95px;}.cls-5{stroke-width:23.26px;}.cls-6{stroke-linecap:round;}</style></defs><title>isotipo-una-tinta</title><g id="Capa_2" data-name="Capa 2"><g id="Capa_1-2" data-name="Capa 1"><path class="cls-1" d="M771.52,394.86V887.34a35,35,0,0,1-35,35H649.26V390.81c0-185.78-134.45-340.27-311.35-371.4a.35.35,0,0,1,0-.7,381,381,0,0,1,57.48-4.2C603.81,15,771.52,186.44,771.52,394.86Z"/><path class="cls-2" d="M332.84,19C197.64,40.18,86.24,133.23,38.93,257.81A376,376,0,0,0,14.51,388.14v499.2a33.82,33.82,0,0,0,5.09,18,34.57,34.57,0,0,0,29.76,17h597V390.8C646.36,204.27,510.81,49.28,332.84,19ZM17.41,612.64H321v-.57H17.41V492.91H179.57v-.4H17.41V472.38c.43-29.47,0-83.81,0-83.81H155.62a24,24,0,0,1,23.95,23.95v80H292.82A28.11,28.11,0,0,1,321,520.6c0,24.52,0,57.41,0,91.47H430.6a33.54,33.54,0,0,1,33.54,33.54V754.5H17.41ZM627.17,922.31H52.27a34.57,34.57,0,0,1-29.76-16.94,33.86,33.86,0,0,1-5.1-18v-132H587.26a39.9,39.9,0,0,1,39.91,39.9Z"/><rect class="cls-3" x="17.41" y="612.07" width="303.58" height="0.57"/><rect class="cls-4" x="17.41" y="492.51" width="162.16" height="0.4"/><rect class="cls-4" x="17.41" y="612.07" width="303.58" height="0.57"/><rect class="cls-5" x="17.41" y="492.51" width="162.16" height="0.4"/><line class="cls-6" x1="17.4" y1="987.37" x2="771.52" y2="993.62"/></g></g></svg>